<svg xmlns="http://www.w3.org/2000/svg" version="1.1" viewBox="0 0 400 74" fill="currentColor">
  <path d="M392.3,65.3c0-1-.3-1.7-.9-2.2-.6-.5-1.6-.9-3-1.2l-6.8-1.3c-6-1.2-9-4-9-8.5s1.1-5.2,3.4-7c2.3-1.7,5.5-2.6,9.5-2.6s7.3.9,9.7,2.7c2.4,1.8,3.7,4.3,4,7.5h-7.4c-.4-1.5-1.1-2.7-2.1-3.4-1-.7-2.5-1.1-4.5-1.1s-3.1.3-4,.8c-.9.5-1.4,1.4-1.4,2.4s.3,1.4.9,1.9c.6.5,1.5.8,2.8,1.1l7,1.3c3.2.6,5.5,1.6,7,3.1,1.5,1.4,2.2,3.4,2.2,5.8s-1.2,5.6-3.5,7.3c-1.2.9-2.6,1.5-4.3,2h-11.4c-1.9-.5-3.5-1.2-4.8-2.2-2.6-1.9-4-4.5-4.2-7.9h7.5c.2,1.6,1,2.8,2.2,3.6,1.2.8,3,1.2,5.4,1.2,3.9,0,5.9-1.1,5.9-3.4ZM243.4,67c-1.3-2.4-2-5.3-2-8.6s.7-6.1,2-8.5c1.3-2.4,3.2-4.2,5.6-5.5,2.4-1.3,5.2-1.9,8.4-1.9s5.9.6,8.1,1.8c2.3,1.2,4,3,5.3,5.3,1.2,2.3,1.9,5,1.9,8.1v2.7h-23.8c.3,2.6,1.2,4.6,2.8,6,1.5,1.4,3.6,2.1,6.1,2.1s3.4-.4,4.6-1.1c1.2-.7,2-1.8,2.5-3.2h7.7c-.7,3.3-2.4,5.8-5,7.6-1.3,1-2.9,1.7-4.6,2.1h-10.4c-1.2-.3-2.4-.8-3.5-1.3-2.5-1.3-4.3-3.2-5.7-5.6ZM249,55.2h16.3c-.3-2.1-1.1-3.8-2.4-4.9-1.4-1.1-3.2-1.7-5.4-1.7s-4.1.6-5.5,1.7c-1.4,1.1-2.4,2.7-2.9,4.8ZM338.3,67c-1.3-2.4-2-5.3-2-8.6s.7-6.1,2-8.5c1.3-2.4,3.2-4.2,5.6-5.5,2.4-1.3,5.2-1.9,8.4-1.9s5.9.6,8.1,1.8c2.3,1.2,4,3,5.3,5.3,1.2,2.3,1.9,5,1.9,8.1v2.7h-23.8c.3,2.6,1.2,4.6,2.8,6,1.5,1.4,3.6,2.1,6.1,2.1s3.4-.4,4.6-1.1c1.2-.7,2-1.8,2.5-3.2h7.7c-.7,3.3-2.4,5.8-5,7.6-1.3,1-2.9,1.7-4.6,2.1h-10.4c-1.2-.3-2.4-.8-3.5-1.3-2.5-1.3-4.3-3.2-5.7-5.6ZM343.9,55.2h16.3c-.3-2.1-1.1-3.8-2.4-4.9-1.4-1.1-3.2-1.7-5.4-1.7s-4.1.6-5.5,1.7c-1.4,1.1-2.4,2.7-2.9,4.8ZM280.1,74h7.7v-17.3c0-2.4.6-4.3,1.8-5.5,1.2-1.2,2.9-1.8,5.1-1.8,4.7,0,7.1,2.4,7.1,7.3v17.3h7.7v-17.3c0-4.9,2.3-7.3,7-7.3s7,2.4,7,7.3v17.3h7.7v-18.7c0-3.9-1.1-7-3.4-9.3-2.3-2.3-5.4-3.4-9.3-3.4s-8.3,1.8-10.6,5.4h-.2c-1.1-1.8-2.5-3.1-4.2-4-1.8-.9-3.8-1.4-6.3-1.4s-4.7.5-6.4,1.4c-1.7,1-3.1,2.3-4.1,4.1h-2.3v-4.9h-7.9v7.7h3.8v23.2ZM144.3,74h7.7v-17.2c0-2.4.7-4.3,2-5.6,1.3-1.3,3.2-1.9,5.7-1.9s4.5.6,5.7,1.9c1.3,1.3,1.9,3.1,1.9,5.6v17.2h7.7v-18.6c0-3.9-1.2-7-3.5-9.3-2.3-2.3-5.6-3.5-9.8-3.5s-4.9.5-6.7,1.4c-1.8,1-3.3,2.3-4.5,4.1h-2.2v-4.9h-7.9v7.7h3.8v23.2ZM72.5,67c-1.3-2.4-2-5.3-2-8.6s.7-6.1,2-8.5c1.3-2.4,3.2-4.2,5.6-5.5,2.4-1.3,5.2-1.9,8.4-1.9s5.9.6,8.1,1.8c2.3,1.2,4,3,5.3,5.3,1.2,2.3,1.9,5,1.9,8.1v2.7h-23.8c.3,2.6,1.2,4.6,2.8,6,1.5,1.4,3.6,2.1,6.1,2.1s3.4-.4,4.6-1.1c1.2-.7,2-1.8,2.5-3.2h7.7c-.7,3.3-2.4,5.8-5,7.6-1.3,1-2.9,1.7-4.6,2.1h-10.4c-1.2-.3-2.4-.8-3.5-1.3-2.5-1.3-4.3-3.2-5.7-5.6ZM78.1,55.2h16.3c-.3-2.1-1.1-3.8-2.4-4.9-1.4-1.1-3.2-1.7-5.4-1.7s-4.1.6-5.5,1.7c-1.4,1.1-2.4,2.7-2.9,4.8ZM44.7,72.7c1,.6,2.2,1,3.4,1.3h10.1c1.9-.5,3.6-1.3,5-2.5,2.6-2.1,4.2-5,4.9-8.7h-7.7c-.9,3.4-3.3,5.1-7.3,5.1s-4.6-.8-6.1-2.4c-1.5-1.6-2.3-3.9-2.3-6.9s.8-5.3,2.3-6.9c1.5-1.6,3.5-2.4,6.1-2.4s3.4.4,4.6,1.2c1.2.8,2.1,2,2.6,3.5h7.7c-.7-3.6-2.3-6.4-4.9-8.4-2.6-2-5.9-3-9.9-3s-6,.7-8.4,2c-2.4,1.3-4.3,3.2-5.6,5.6-1.3,2.4-2,5.2-2,8.5s.7,6.1,2,8.5c1.3,2.4,3.2,4.3,5.6,5.6ZM213.1,74v-17.2c0-2.4.7-4.3,2-5.6,1.3-1.3,3.2-1.9,5.7-1.9s4.4.6,5.7,1.9c1.3,1.3,2,3.1,2,5.6v17.2h7.7v-18.6c0-3.9-1.1-7-3.4-9.3-2.3-2.3-5.4-3.5-9.2-3.5s-4.4.4-6.1,1.3c-1.7.9-3.1,2.2-4.1,3.8h-.2v-16.9h-7.7v43.2h7.7ZM2.5,67.1c-1.4-2.4-2-5.2-2-8.5s.7-6.1,2-8.5c1.4-2.4,3.3-4.3,5.7-5.6,2.5-1.3,5.4-2,8.7-2s6.3.7,8.7,2c2.4,1.3,4.3,3.2,5.6,5.6,1.3,2.4,2,5.3,2,8.5s-.7,6.1-2,8.5c-1.3,2.4-3.2,4.3-5.7,5.6-1.1.6-2.2,1-3.4,1.3h-10.5c-1.2-.3-2.4-.8-3.5-1.3-2.5-1.3-4.4-3.2-5.7-5.6ZM8.2,58.5c0,3,.8,5.3,2.3,6.9,1.5,1.7,3.7,2.5,6.5,2.5s4.9-.8,6.4-2.5c1.5-1.7,2.3-4,2.3-6.9s-.8-5.3-2.3-6.9c-1.5-1.6-3.6-2.5-6.4-2.5s-4.9.8-6.5,2.5c-1.5,1.6-2.3,3.9-2.3,6.8ZM184.8,67.8c0,2.1.6,3.7,1.7,4.7,1.1,1,2.5,1.5,4.4,1.5h9.7v-6h-8.1v-18.9h7.4v-6h-7.5v-9.3h-7.5v9.3h-5.5v6h5.5v18.7ZM127,55.5v-1.2c0-3.8-2.2-5.7-6.6-5.7s-6,1.3-6.7,4h-7.7c.7-3.3,2.2-5.8,4.7-7.5,2.5-1.7,5.7-2.6,9.7-2.6s8,1,10.4,3.1c2.4,2,3.6,5,3.6,8.9v11.8h3.7v7.7h-7.9v-4.9h-2.2c-1.1,1.8-2.5,3.1-4.3,4.1-.7.4-1.4.6-2.2.9h-9c-1.5-.4-2.8-1.1-3.9-2-2-1.8-3.1-4.1-3.1-7s1-5.4,3.1-7c2.1-1.6,5.1-2.5,9-2.5h9.4ZM127,60.8h-9c-3.5,0-5.2,1.3-5.2,3.9s.5,2.3,1.4,3c.9.7,2.3,1.1,3.9,1.1s3.2-.3,4.5-1c1.3-.6,2.4-1.5,3.2-2.6.8-1.1,1.2-2.3,1.2-3.6v-.7Z"/>
</svg>